<?xml version="1.0" encoding="UTF-8"?>
<svg version="1.1" xmlns="http://www.w3.org/2000/svg" width="133" height="133">
<path d="M0 0 C1.00256836 0.00757324 2.00513672 0.01514648 3.03808594 0.02294922 C20.49699085 0.40861029 35.12930453 7.32515762 47.6875 19.4375 C59.1471926 32.46311332 65.31073233 47.37370838 65.125 64.75 C65.11364014 66.25385254 65.11364014 66.25385254 65.10205078 67.78808594 C64.71638971 85.24699085 57.79984238 99.87930453 45.6875 112.4375 C32.66188668 123.8971926 17.75129162 130.06073233 0.375 129.875 C-1.12885254 129.86364014 -1.12885254 129.86364014 -2.66308594 129.85205078 C-20.12199085 129.46638971 -34.75430453 122.54984238 -47.3125 110.4375 C-58.7721926 97.41188668 -64.93573233 82.50129162 -64.75 65.125 C-64.74242676 64.12243164 -64.73485352 63.11986328 -64.72705078 62.08691406 C-64.34138971 44.62800915 -57.42484238 29.99569547 -45.3125 17.4375 C-32.28688668 5.9778074 -17.37629162 -0.18573233 0 0 Z " fill="#0000FF" transform="translate(66.3125,1.5625)"/>
</svg>
